<svg xmlns="http://www.w3.org/2000/svg" width="256" height="256"><path fill="#1976D2" fill-opacity=".016" fill-rule="evenodd" d="M0 128.004v128.004l128.25-.254 128.25-.254.254-127.75L257.008 0H0zm.485.496c0 70.4.119 99.053.265 63.672s.146-92.98 0-128S.485 58.1.485 128.5"/><path fill="#1976D2" fill-opacity=".338" fill-rule="evenodd" d="M108 .344c0 .982 8.608 4.414 12.879 5.136 2.261.382 4.364 1.105 4.675 1.607s1.372.913 2.359.913c2.379 0 20.198 8.864 26.943 13.403 2.94 1.978 5.478 3.597 5.642 3.597 1.295 0 19.534 17.474 24.018 23.011C192.028 57.288 205 81.562 205 86.342c0 .847.424 1.802.942 2.122.518.321 1.25 2.71 1.626 5.309.377 2.6 1.022 5.177 1.436 5.727.926 1.232 1.858 9.672 2.595 23.5.704 13.201-2.932 39.666-5.85 42.584-.412.412-.749 1.394-.749 2.182 0 .787-.614 2.85-1.364 4.583a439 439 0 0 0-3.188 7.651c-1.003 2.475-2.414 5.21-3.136 6.079-.721.868-1.312 1.902-1.312 2.298 0 .395-1.686 3.285-3.746 6.421s-3.973 6.155-4.25 6.709C185.921 205.67 162.499 229 160.403 229c-.339 0-2.257 1.237-4.263 2.75-4.847 3.654-6.478 4.606-14.14 8.25-3.575 1.701-7.774 3.746-9.331 4.546S129.06 246 128.11 246s-2.601.661-3.669 1.468c-1.067.808-3.196 1.483-4.731 1.5-3.231.037-10.71 3.591-10.71 5.09 0 1.342 40.695.609 47.5-.855 5.24-1.127 12.603-3.287 16-4.692 1.1-.455 4.052-1.616 6.561-2.58 15.848-6.09 36.951-21.982 49.067-36.949 7.61-9.402 19.872-30.017 19.872-33.41 0-.423.601-2.188 1.335-3.921 2.757-6.503 3.908-10.305 4.707-15.533.451-2.959 1.302-5.862 1.89-6.45 1.803-1.803 1.381-38.537-.535-46.504-2.335-9.711-4.521-17.227-6.052-20.815-.74-1.733-1.345-3.579-1.345-4.101 0-.951-2.286-5.451-8.166-16.077-4.388-7.928-12.516-18.544-19.929-26.026-5.892-5.947-19.555-16.958-22.905-18.46-.825-.37-2.383-1.238-3.462-1.929-5.869-3.757-9.652-5.756-10.896-5.756-.768 0-1.917-.626-2.552-1.391s-2.377-1.614-3.872-1.886c-3.133-.57-8.193-2.307-13.218-4.538C160.224.952 154.171.543 133.75.206 119.588-.027 108 .035 108 .344M70 41.961c-.825.555-2.85 1.018-4.5 1.03s-4.289.694-5.864 1.515C58.06 45.328 56.105 46 55.29 46c-1.297 0-3.411.931-9.29 4.09-10.338 5.556-10.82 5.921-22.235 16.833C19.494 71.006 16 74.906 16 75.59s-.355 1.393-.789 1.577c-.932.393-6.024 8.875-8.316 13.849-5.527 11.995-5.245 10.328-5.656 33.484-.388 21.868.384 32.806 2.788 39.5 5.289 14.729 8.557 22.219 11.997 27.5 1.075 1.65 2.262 3.675 2.638 4.5 1.492 3.271 11.5 15.799 16.687 20.887C44.492 225.856 44 228.361 44 172.833c0-45.311.743-61.705 3.053-67.333.452-1.1 1.11-3.125 1.464-4.5C52.053 87.238 64.855 69.495 78.5 59.446c4.457-3.283 6.715-4.618 12.823-7.581 2.298-1.114 4.958-2.44 5.913-2.945.955-.506 2.557-.92 3.559-.92s2.614-.578 3.58-1.285c1.656-1.211 1.632-1.399-.411-3.25-1.922-1.742-3.888-1.996-17.316-2.238-9.003-.163-15.757.135-16.648.734"/><path fill="#1976D2" fill-opacity=".229" fill-rule="evenodd" d="M171 31.601c0 1.296 6.81 7.922 7.467 7.266.273-.273-1.295-2.247-3.485-4.385S171 31.047 171 31.601M179.5 41c.34.55.816 1 1.059 1s.441-.45.441-1-.477-1-1.059-1-.781.45-.441 1M196 58c0 .55.477 1 1.059 1s.781-.45.441-1-.816-1-1.059-1-.441.45-.441 1m37.079 2.583c.048 1.165.285 1.402.604.605.289-.722.253-1.585-.079-1.917s-.568.258-.525 1.312m-33.412 1.084c-.367.366-.653 1.379-.637 2.25.025 1.3.221 1.257 1.092-.242 1.077-1.852.765-3.228-.455-2.008m35.874 3.601c-.423.972-1.28 1.706-1.905 1.631-3.044-.365-14.962.328-13.773.801 1.088.433 1.106.701.088 1.33-.734.454-1.874.19-2.685-.621-1.601-1.602-8.735-1.978-7.766-.409.34.55.029 1.007-.691 1.015-1.043.013-1.033.19.048.875 1.749 1.108-.094 2.34-2.258 1.509-2.195-.842-3.042 1.924-1.461 4.773.71 1.28 1.336 2.553 1.39 2.828.055.275 1.076 3.673 2.269 7.552 3.76 12.221 7.284 34.448 5.462 34.448-.596 0-.801 4.155-.53 10.75.334 8.116.057 11.853-1.129 15.25-.864 2.475-1.577 5.995-1.585 7.821-.008 1.827-.69 3.997-1.515 4.822s-1.5 2.791-1.5 4.369c0 1.579-.414 3.126-.92 3.438-.505.313-1.892 3.602-3.08 7.309s-3.017 8.091-4.065 9.741-2.369 3.9-2.935 5-1.918 3.35-3.004 5-2.291 3.675-2.679 4.5-1.18 2.024-1.761 2.664-2.181 2.665-3.556 4.5c-3.955 5.277-15.94 16.99-22.5 21.988-7.521 5.73-19.097 12.848-20.895 12.848-.748 0-1.92.675-2.605 1.5s-2 1.5-2.922 1.5-2.105.392-2.628.872c-1.088.997-14.095 5.128-16.15 5.128-.749 0-1.622.675-1.938 1.5-.317.825-1.626 1.5-2.91 1.5s-2.612.45-2.952 1c-.404.653 5.97 1 18.382 1 10.45 0 19.239-.387 19.532-.86.292-.474 2.66-1.152 5.262-1.509 4.533-.621 6.227-1.072 16.324-4.341 9.047-2.93 20.923-8.934 30.871-15.609 12.882-8.644 31.159-28.495 38.782-42.121 3.172-5.671 7.55-15.373 8.046-17.831.308-1.524.951-3.013 1.43-3.309s.877-1.974.885-3.729c.017-4.13 1.011-7.794 1.954-7.211.408.252 1.048-3.909 1.423-9.248.376-5.338 1.167-10.162 1.758-10.719.755-.71.9-.416.486.987-.324 1.1-.157 2.675.373 3.5.638.995.967-3.947.977-14.691.01-11.104-.345-16.413-1.131-16.899-.806-.499-.949.076-.481 1.941.366 1.457.253 2.649-.251 2.649-1.348 0-3.325-12.682-2.716-17.421.369-2.873.286-3.34-.281-1.579-.75 2.333-.888 2.2-2.068-2-2.313-8.233-7.545-20.566-9.144-21.553-.502-.311-.913-1.447-.913-2.525 0-1.591-.47-1.842-2.5-1.333-2.43.61-3.693-1.025-1.386-1.794.613-.204.908-1.254.655-2.333-.425-1.814-.517-1.829-1.228-.194M202 68.5c0 1.491.431 2.352 1 2 .55-.34 1-1.24 1-2s-.45-1.66-1-2c-.569-.352-1 .509-1 2m41 3.441c0 .518.445 1.216.989 1.552.566.35.734-.051.393-.941-.665-1.732-1.382-2.049-1.382-.611M56.964 79.164c-1.145 2.233-1.118 2.26.61.61.994-.95 1.533-2.001 1.197-2.336s-1.148.442-1.807 1.726m-3.885 1.419c.048 1.165.285 1.402.604.605.289-.722.253-1.585-.079-1.917s-.568.258-.525 1.312m-3 4c.048 1.165.285 1.402.604.605.289-.722.253-1.585-.079-1.917s-.568.258-.525 1.312M13 87c0 .55.45 1 1 1s1-.45 1-1-.45-1-1-1-1 .45-1 1m34 2.941c0 2.415.556 2.658 1.349.591.31-.807.133-1.734-.393-2.059S47 88.809 47 89.941m-36.25.63c-.412.419-.75 2.037-.75 3.596 0 1.664-.491 2.73-1.191 2.583-.654-.138-1.36.65-1.568 1.75s-1.021 3.418-1.809 5.151S4 107.761 4 108.933s-.619 3.614-1.376 5.425C.152 120.274.933 150.851 3.739 158c.323.825.627 1.8.675 2.167.047.366.424 1.004.836 1.416.413.413.75 1.603.75 2.646 0 2.586 3.033 11.673 4.12 12.345.484.299.88 1.587.88 2.863 0 1.275.675 2.878 1.5 3.563s1.5 1.81 1.5 2.5.675 1.815 1.5 2.5 1.5 2.052 1.5 3.039.338 1.944.75 2.128c.413.183 3 3.668 5.75 7.744 5.71 8.463 16.068 19.4 17.821 18.815 1.474-.491 2.235-94.764.772-95.668-1.207-.746.285-13.264 2.748-23.058 1.037-4.125 1.761-7.649 1.608-7.831s-1.243.186-2.423.817c-1.837.983-2.1.895-1.835-.616.275-1.567-.603-1.762-7.886-1.751-4.507.007-8.016-.278-7.796-.633.536-.868-2.731-.585-4.277.37-.677.419-1.71.466-2.295.105s-1.935.132-3 1.096S15 93.96 15 93.533s-.642-.245-1.428.407c-1.168.97-1.486.703-1.75-1.474-.177-1.462-.66-2.315-1.072-1.895m38.709 2.496c-.363.586-.445 1.281-.183 1.543s.743-.218 1.069-1.067c.676-1.762.1-2.072-.886-.476M42 97.059c0 .582.45.781 1 .441s1-.816 1-1.059S43.55 96 43 96s-1 .477-1 1.059m4.564 3.648c-.542 1.425-.428 1.54.56.56.684-.679.991-1.486.683-1.793-.308-.308-.867.247-1.243 1.233M211.158 105c0 1.375.227 1.938.504 1.25.278-.687.278-1.812 0-2.5-.277-.687-.504-.125-.504 1.25m-167 6c0 1.375.227 1.938.504 1.25.278-.687.278-1.812 0-2.5-.277-.687-.504-.125-.504 1.25m210.921 17.583c.048 1.165.285 1.402.604.605.289-.722.253-1.585-.079-1.917s-.568.258-.525 1.312"/><path fill="#1976D2" fill-opacity=".219" fill-rule="evenodd" d="M216.328 132.5c.005 3.85.185 5.302.402 3.228.216-2.075.213-5.225-.008-7s-.398-.078-.394 3.772M38.194 146.315c-.657 1.548-1.194 3.406-1.194 4.128 0 1.674-2.465 3.758-3.373 2.851-.921-.921-22.627-.993-22.627-.075 0 1.995-2.964-.78-3.516-3.291C6.5 145.448 5 145.42 5 149.882c0 2.2.393 4.243.873 4.539.48.297.919 2.461.975 4.809.057 2.349 1.048 6.745 2.202 9.77 1.155 3.025 2.46 6.625 2.899 8 1.186 3.707 8.872 18.023 11.642 21.683 1.325 1.751 2.409 3.458 2.409 3.792C26 204.23 39.105 218 40.776 218c1.344 0 1.43-3.401.747-29.25-.425-16.088-1.08-32.85-1.454-37.25-.629-7.384-.773-7.783-1.875-5.185m211.15 4.193c-.766 1.653-.815 2.701-.143 3.116.649.401.577.895-.201 1.376-.841.52-.883.954-.136 1.416 1.24.766 2.468-3.166 1.969-6.305-.315-1.98-.395-1.958-1.489.397M213 155.777c0 2.078-.638 4.689-1.417 5.802-.78 1.113-1.73 3.688-2.112 5.722-.381 2.034-1.094 3.699-1.582 3.699-.489 0-.889.74-.889 1.645 0 1.491-5.347 12.919-8.354 17.855-6.968 11.437-11.766 17.578-21.146 27.066C171.504 223.63 156.14 236 154.603 236c-.276 0-2.503 1.35-4.948 3s-4.875 3-5.401 3-3.072 1.125-5.658 2.5-5.466 2.514-6.399 2.532c-.933.017-2.571.692-3.638 1.5-1.068.807-3.183 1.468-4.7 1.468s-3.119.609-3.559 1.353c-.44.745-2.15 1.834-3.8 2.421-2.38.847.131 1.084 12.143 1.147 12.588.066 15.24-.174 15.719-1.421.417-1.088 2.162-1.509 6.357-1.532 3.49-.019 6.55-.613 7.722-1.5 1.068-.807 3.655-1.468 5.75-1.468s3.809-.401 3.809-.892c0-.49 1.238-1.181 2.75-1.534 1.512-.354 4.325-1.379 6.25-2.278a751 751 0 0 1 7-3.216c1.925-.869 3.725-1.857 4-2.195.275-.339 1.512-.931 2.75-1.318 1.238-.386 2.25-1.121 2.25-1.634s.852-.933 1.893-.933 2.152-.675 2.469-1.5 1.216-1.5 2-1.5c.783 0 1.683-.675 2-1.5s1.264-1.5 2.107-1.5c.842 0 1.531-.45 1.531-1s.4-1 .888-1c2.255 0 22.159-21.118 25.537-27.095 1.058-1.873 2.214-3.63 2.569-3.905.354-.275 1.648-2.525 2.874-5s2.621-5.175 3.098-6 1.61-3.3 2.518-5.5 2.035-4.9 2.504-6c1.706-4 4.012-11.902 4.012-13.746 0-1.471-.47-1.74-2.125-1.214-1.173.372-1.877.273-1.572-.221.928-1.502-5.14-3.545-9.342-3.144-3.045.291-3.965.025-3.976-1.149-.013-1.231-.181-1.266-.871-.176-.6.947-2.535 1.246-6.486 1-3.097-.192-5.751.013-5.899.457-.432 1.304-3.729-.389-3.729-1.914 0-.766-.45-1.393-1-1.393s-1 1.7-1 3.777"/></svg>